<?xml version="1.0" standalone="no"?>
<!DOCTYPE svg PUBLIC "-//W3C//DTD SVG 20010904//EN"
 "http://www.w3.org/TR/2001/REC-SVG-20010904/DTD/svg10.dtd">
<svg version="1.0" xmlns="http://www.w3.org/2000/svg"
 width="500.000000pt" height="500.000000pt" viewBox="0 0 500.000000 500.000000"
 preserveAspectRatio="xMidYMid meet">
<metadata>
Created by potrace 1.14, written by Peter Selinger 2001-2017
</metadata>
<g transform="translate(0.000000,500.000000) scale(0.100000,-0.100000)"
fill="#000000" stroke="none">
<path d="M2408 4575 c-2 -2 -47 -5 -100 -9 -128 -8 -338 -49 -466 -92 -215
-71 -359 -142 -547 -268 -49 -33 -92 -63 -95 -66 -3 -3 -27 -23 -55 -45 -64
-51 -228 -214 -286 -285 -113 -137 -168 -224 -258 -405 -99 -200 -155 -376
-191 -605 -6 -36 -13 -83 -15 -105 -6 -46 -6 -325 -1 -370 2 -16 6 -55 10 -85
3 -30 8 -66 11 -80 3 -14 7 -36 10 -50 58 -303 195 -607 384 -855 82 -108 234
-267 320 -335 24 -19 49 -40 55 -45 52 -48 259 -177 377 -234 107 -51 294
-124 352 -136 10 -2 27 -7 37 -10 21 -7 38 -10 140 -30 78 -15 117 -21 210
-31 66 -7 333 -7 375 0 17 2 59 8 95 11 132 14 333 64 479 120 345 133 628
334 861 610 23 28 51 61 62 74 37 44 145 215 191 301 57 110 108 233 140 340
22 74 28 98 43 155 6 26 15 73 20 105 2 19 7 46 10 60 24 111 23 475 -1 590
-3 14 -7 39 -9 55 -3 17 -10 53 -16 80 -7 28 -14 60 -16 71 -9 45 -74 233
-109 314 -248 576 -774 1024 -1391 1185 -105 28 -118 30 -286 55 -66 10 -333
21 -340 15z"/>
</g>
</svg>
